<svg width="645" height="522" viewBox="0 0 645 522" fill="none" xmlns="http://www.w3.org/2000/svg">
<path d="M586.639 405.85C652.099 334.439 675.903 190.131 586.639 170.294C454.275 140.879 519.691 244.68 194.872 190.13C-6.37164 156.334 8.90707 356.258 120.486 467.838C232.066 579.417 504.814 495.113 586.639 405.85Z" fill="#FCDDD4"/>
<mask id="mask0" mask-type="alpha" maskUnits="userSpaceOnUse" x="39" y="164" width="606" height="358">
<path d="M586.639 405.849C652.099 334.438 675.903 190.131 586.639 170.294C454.275 140.879 519.691 244.679 194.872 190.13C-6.37164 156.334 8.90707 356.258 120.486 467.837C232.066 579.417 504.814 495.112 586.639 405.849Z" fill="#FCDDD4"/>
</mask>
<g mask="url(#mask0)">
<path opacity="0.7" d="M-3.49023 373.019C28.9727 330.807 114.955 248.492 199.184 256.935C304.469 267.488 104.427 465.359 199.184 465.359C293.94 465.359 338.686 222.637 407.122 222.637C475.557 222.637 330.79 402.04 407.122 412.593C483.453 423.146 546.624 159.318 630.852 156.68C715.08 154.042 543.992 373.019 680.863 373.019" stroke="url(#paint0_linear)" stroke-width="2"/>
<path d="M719.975 470.861C719.975 498.392 704.129 520.635 684.641 520.635H649.307C629.819 520.635 614.155 498.209 614.155 470.861C614.155 443.33 630.001 421.086 649.489 421.086C649.853 421.086 650.036 421.086 650.4 421.086H684.641C704.311 421.086 719.975 443.512 719.975 470.861Z" fill="#402B2B"/>
<path d="M443.135 470.314C443.135 497.845 427.289 520.088 407.801 520.088H372.467C352.979 520.088 337.316 497.662 337.316 470.314C337.316 442.783 353.161 420.539 372.649 420.539C373.014 420.539 373.196 420.539 373.56 420.539H407.801C427.471 420.539 443.135 442.783 443.135 470.314Z" fill="#F48767"/>
<path d="M722.341 466.121L580.095 465.756L596.487 456.093L704.128 456.275L722.341 466.121Z" fill="#402B2B"/>
<path d="M856.573 384.987L856.391 476.331L740.919 476.149L704.128 456.276L596.488 456.093L563.339 475.784L328.388 475.237C324.563 475.237 321.467 472.138 321.467 468.309L321.649 383.893L856.573 384.987Z" fill="#F36F49"/>
<path d="M604.864 405.771L420.545 405.407L420.91 238.216C420.91 231.47 426.374 226 433.295 226L605.41 226.365L604.864 405.771Z" fill="#F48767"/>
<path d="M892.271 406.501L605.047 405.954L605.411 226.547L880.432 227.094C887.171 227.094 892.635 232.564 892.635 239.492L892.271 406.501Z" fill="#F06A5B"/>
<path d="M466.446 470.314C466.446 497.845 482.109 520.088 501.597 520.088H536.749V503.314C549.68 503.314 560.244 488.546 560.244 470.314C560.244 452.081 549.863 437.313 536.931 437.313V420.539H501.779C482.291 420.722 466.628 442.965 466.446 470.314Z" fill="#F48767"/>
<path d="M565.888 470.679C565.888 493.287 552.956 511.52 536.929 511.337C520.901 511.337 508.152 493.105 508.152 470.497C508.152 447.889 521.083 429.656 537.111 429.839C552.956 429.839 565.888 448.071 565.888 470.679Z" fill="#F48767"/>
<path d="M536.932 497.48C526.368 497.48 517.99 485.446 517.99 470.496C517.99 455.545 526.55 443.694 537.114 443.694C547.678 443.694 556.056 455.727 556.056 470.678C556.056 485.629 547.495 497.48 536.932 497.48ZM536.932 454.634C530.739 454.634 525.639 461.744 525.639 470.496C525.639 479.247 530.739 486.54 536.932 486.54C543.124 486.54 548.224 479.43 548.224 470.678C548.224 461.744 543.306 454.634 536.932 454.634Z" fill="#F7A58D"/>
<path d="M536.931 520.271C517.443 520.271 501.779 497.845 501.779 470.496C501.779 443.148 517.625 420.722 537.113 420.722C556.601 420.722 572.265 443.148 572.265 470.496C572.265 497.845 556.237 520.453 536.931 520.271ZM537.113 429.838C521.085 429.838 508.154 448.07 508.154 470.496C508.154 493.104 520.903 511.337 536.931 511.337C552.959 511.337 565.89 493.104 565.89 470.678C565.89 448.07 552.959 429.838 537.113 429.838Z" fill="#F7A58D"/>
<path d="M541.848 470.496C541.848 466.667 539.662 463.75 537.112 463.75C534.562 463.75 532.377 466.85 532.195 470.496C532.195 474.325 534.38 477.242 536.93 477.242C539.662 477.425 541.848 474.325 541.848 470.496Z" fill="#5B2929"/>
<path d="M298.52 334.119C298.52 334.848 297.974 335.395 297.427 335.577C295.97 335.942 290.506 335.942 288.867 335.395C288.138 335.213 287.41 334.666 287.41 333.754C286.864 319.168 286.864 304.947 287.41 291.455C287.41 290.543 288.138 289.996 288.867 289.814C290.688 289.267 297.063 288.902 299.066 289.632C299.795 289.814 300.341 290.543 300.341 291.273C300.706 305.129 300.159 319.351 298.52 334.119Z" fill="#F69276"/>
<path d="M307.443 347.063C307.261 347.063 307.079 347.063 306.714 346.881L294.329 340.682C291.415 339.223 289.594 336.306 289.594 333.024L289.776 287.261C289.776 285.438 291.233 283.979 293.054 283.979H327.113C328.024 283.979 328.57 284.708 328.57 285.438C328.57 286.349 327.842 286.896 327.113 286.896H293.054C292.872 286.896 292.872 287.078 292.872 287.078L292.69 332.842C292.69 335.03 293.965 336.853 295.786 337.765L308.171 343.964C308.9 344.328 309.264 345.24 308.9 345.969C308.536 346.881 307.989 347.063 307.443 347.063Z" fill="#F69276"/>
<path d="M580.095 405.406C580.095 405.406 575.36 405.406 568.074 405.406H539.115C517.441 405.406 512.342 416.163 499.046 442.6L456.973 442.418C456.973 442.418 456.973 439.319 456.973 434.031L296.332 433.667C295.604 420.357 294.146 393.373 294.146 367.848C294.146 366.936 294.146 366.207 294.146 365.295C294.146 358.002 295.421 349.98 297.607 341.958C306.167 310.598 327.841 277.233 336.766 265.017C339.68 261.006 342.23 257.542 344.415 254.442C350.608 246.238 354.797 242.044 362.628 242.044L557.328 242.591C561.335 242.591 564.978 245.326 566.071 249.155C582.827 310.78 580.277 357.637 580.095 405.406ZM415.993 264.288C416.175 263.376 415.447 262.647 414.536 262.647L355.343 262.464C351.883 262.464 348.422 264.288 346.236 267.387C323.106 298.929 313.817 327.736 310.356 344.328L306.714 361.831C306.167 364.383 307.806 366.389 310.356 366.389H324.745C327.113 366.389 329.662 365.295 331.484 363.472L360.989 335.212C364.268 332.112 368.639 330.289 372.828 330.289H408.162L415.993 264.288Z" fill="#F36F49"/>
<path d="M446.594 342.505C445.319 348.34 443.862 354.357 442.587 360.738C441.676 365.114 437.851 368.213 433.48 368.396C375.926 370.401 328.207 370.583 294.149 368.031C294.149 367.119 294.149 366.39 294.149 365.478C294.149 358.185 295.424 350.163 297.609 342.141L446.594 342.505Z" fill="#F6977C"/>
<path d="M552.959 262.83L493.766 262.647C490.306 262.647 487.209 264.47 485.57 267.57C468.996 299.112 465.536 327.919 465.536 344.511V362.014C465.536 364.566 467.539 366.572 470.089 366.572H484.477C486.845 366.572 489.213 365.478 490.67 363.655L514.347 335.395C517.079 332.295 520.904 330.289 525.093 330.472H560.427L554.781 264.47C554.781 263.559 554.052 262.83 552.959 262.83Z" fill="#F36F49"/>
<path d="M580.095 405.406C580.095 405.406 575.36 405.406 568.074 405.406H539.115C517.441 405.406 512.342 416.163 499.046 442.6L456.973 442.418C456.973 442.418 456.973 439.319 456.973 434.031L296.332 433.667C295.604 420.357 294.146 393.373 294.146 367.848C328.205 370.4 376.106 370.4 433.478 368.212C437.849 368.03 441.674 364.93 442.585 360.555C443.86 354.173 445.317 347.974 446.592 342.322C454.423 308.957 462.984 285.073 474.276 259.183C475.186 257.177 473.729 254.807 471.544 254.807L344.415 254.442C350.608 246.238 354.797 242.044 362.628 242.044L557.328 242.591C561.335 242.591 564.978 245.326 566.071 249.155C582.827 310.78 580.277 357.637 580.095 405.406ZM560.607 330.471L554.961 264.47C554.961 263.558 554.05 262.829 553.139 262.829L493.946 262.647C490.486 262.647 487.389 264.47 485.75 267.57C469.176 299.112 465.716 327.919 465.716 344.51V362.013C465.716 364.566 467.719 366.571 470.269 366.571H484.657C487.025 366.571 489.393 365.477 490.85 363.654L514.527 335.394C517.259 332.294 521.084 330.289 525.273 330.471H560.607Z" fill="#F7A58D"/>
<path d="M572.994 400.666C572.994 403.401 570.808 405.407 568.076 405.407H539.117C517.443 405.407 512.344 416.164 499.048 442.601L456.975 442.419C456.975 442.419 456.975 439.319 456.975 434.032L457.157 360.191C457.157 323.543 463.714 300.388 481.017 263.741C483.567 258.272 489.213 254.807 495.223 254.807L557.877 254.99C559.334 254.99 560.427 255.901 560.791 257.178C573.176 304.217 573.176 380.793 572.994 400.666ZM560.609 330.472L554.963 264.471C554.963 263.559 554.052 262.83 553.142 262.83L493.948 262.647C490.488 262.647 487.392 264.471 485.752 267.57C469.178 299.112 465.718 327.919 465.718 344.511V362.014C465.718 364.566 467.721 366.572 470.271 366.572H484.66C487.027 366.572 489.395 365.478 490.852 363.655L514.529 335.394C517.261 332.295 521.086 330.289 525.275 330.472H560.609Z" fill="#F58A6B"/>
<path d="M552.595 265.017L493.766 264.835C491.216 264.835 488.849 266.294 487.574 268.482C470.453 301.118 467.721 330.107 467.721 344.328V361.831C467.721 363.108 468.814 364.202 470.089 364.202H484.477C486.299 364.202 487.938 363.472 489.031 362.196L512.708 333.936C515.804 330.289 520.358 328.102 525.275 328.102H558.059L552.595 265.017ZM552.959 262.83C553.87 262.83 554.781 263.559 554.781 264.47L560.427 330.472H525.093C520.904 330.472 517.079 332.295 514.347 335.395L490.67 363.655C489.213 365.478 486.845 366.572 484.477 366.572H470.089C467.539 366.572 465.536 364.566 465.536 362.014V344.511C465.536 327.919 468.996 299.112 485.57 267.57C487.209 264.47 490.306 262.647 493.766 262.647L552.959 262.83Z" fill="#F7A58D"/>
<path d="M457.155 399.208V434.031L393.591 433.849C394.319 424.733 395.959 415.981 398.691 407.777C399.783 404.495 402.515 402.125 405.976 401.578C420 399.937 437.849 399.208 457.155 399.208ZM328.569 433.849H297.061C296.514 426.192 295.968 413.793 295.421 399.755C303.071 400.119 310.174 400.848 316.549 401.76C320.009 402.307 322.741 404.677 323.834 407.959C326.384 415.981 327.841 424.733 328.569 433.849Z" fill="#F6977C"/>
<path d="M456.974 469.038L309.628 468.673C299.611 468.673 291.415 460.469 291.415 450.441V447.341C291.415 444.424 293.783 442.236 296.515 442.236L456.791 442.601L456.974 469.038Z" fill="#F6977C"/>
<path d="M484.112 469.038H456.974V442.601H498.683L494.129 461.016C493.036 465.756 488.847 469.038 484.112 469.038Z" fill="#F7A58D"/>
<path d="M548.952 372.589C542.759 372.771 530.738 374.048 530.738 378.423C530.738 382.799 541.302 384.258 549.862 384.258C558.423 384.258 559.333 379.517 560.062 377.512C560.608 375.506 561.155 372.407 548.952 372.589Z" fill="#F6977C"/>
<path d="M548.405 377.329C551.319 377.329 554.415 376.418 555.872 374.959C554.779 374.412 553.14 373.865 550.59 373.865C545.855 373.865 538.205 374.412 534.198 376.235C534.745 376.6 536.202 377.329 538.569 377.329C541.484 377.329 545.308 377.329 548.405 377.329Z" fill="#F47B58"/>
<path d="M536.201 380.794C535.108 380.794 534.562 380.976 534.38 381.158C537.658 382.617 543.669 383.164 546.583 383.164C550.772 383.164 553.686 383.164 554.597 382.252C553.868 381.705 552.229 380.794 550.59 380.794C548.404 380.976 537.658 380.794 536.201 380.794Z" fill="#F47B58"/>
<path d="M456.974 434.214C456.974 439.501 456.974 442.601 456.974 442.601L296.879 442.236C296.879 442.236 296.697 439.136 296.333 433.849L456.974 434.214Z" fill="#F58A6B"/>
<g opacity="0.2">
<path d="M387.944 397.384V432.208L334.215 432.026V397.202C334.215 393.008 338.04 389.727 342.775 389.727H379.566C384.12 389.909 387.944 393.373 387.944 397.384Z" fill="#F16036"/>
</g>
<path d="M316.184 430.932H304.892C301.978 430.932 299.428 428.562 299.428 425.462V419.81C299.428 416.893 301.796 414.341 304.892 414.341H316.184C319.099 414.341 321.648 416.711 321.648 419.81V425.462C321.648 428.562 319.099 430.932 316.184 430.932Z" fill="white"/>
<path d="M423.099 431.297H411.807C408.893 431.297 406.343 428.927 406.343 425.827V420.175C406.343 417.258 408.711 414.706 411.807 414.706H423.099C426.014 414.706 428.563 417.076 428.563 420.175V425.827C428.563 428.745 426.196 431.297 423.099 431.297Z" fill="white"/>
<path d="M495.951 334.483C495.951 335.213 495.405 335.76 494.859 335.942C487.755 336.671 480.288 336.671 472.638 335.76C471.728 335.577 471.181 335.03 471.181 334.119C470.635 319.533 470.635 305.312 471.181 291.82C471.181 290.908 471.91 290.361 472.638 290.179C480.47 289.267 488.302 289.267 496.498 290.179C497.226 290.361 497.773 291.09 497.773 291.82C498.319 305.494 497.591 319.715 495.951 334.483Z" fill="#F7A58D"/>
<path d="M467.722 347.428C467.176 347.428 466.63 347.064 466.447 346.517C466.083 345.788 466.447 344.876 467.176 344.511L479.561 338.495C481.382 337.583 482.657 335.577 482.657 333.572L482.839 287.808C482.839 287.626 482.657 287.626 482.657 287.626H475.008C474.097 287.626 473.551 286.897 473.551 286.168C473.551 285.256 474.279 284.709 475.008 284.709H482.657C484.479 284.709 485.936 286.168 485.936 287.991L485.753 333.754C485.753 337.036 483.932 339.953 481.018 341.412L468.633 347.428C468.087 347.428 467.904 347.428 467.722 347.428Z" fill="#F69276"/>
<path d="M384.189 471.197L332.646 471.085L332.679 455.587L384.223 455.699L384.189 471.197Z" fill="#F8B4A0"/>
<path opacity="0.6" d="M474.628 259.734C463.335 285.624 454.957 309.509 446.943 342.874L297.959 342.509C306.519 311.15 328.193 277.784 337.117 265.569C340.031 261.558 342.581 258.093 344.767 254.994L471.896 255.359C474.081 255.541 475.538 257.729 474.628 259.734Z" fill="url(#paint1_linear)"/>
<path d="M233.305 277.535C233.305 277.535 229.099 408.393 233.19 555.503C233.19 555.503 245.462 567.134 268.714 559.38C268.714 559.38 268.498 395.685 274.742 330.638C274.742 330.638 304.022 454.271 341.053 561.319C341.053 561.319 365.812 566.057 374.639 552.057C374.639 552.057 324.69 378.669 317.37 278.944L233.305 277.535Z" fill="url(#paint2_linear)"/>
<path d="M233.619 278.944H317.369C318.015 286.482 318.661 294.452 319.737 302.637C269.789 302.852 243.308 290.144 233.404 284.329C233.404 280.667 233.619 278.944 233.619 278.944Z" fill="#402B2B" fill-opacity="0.45" style="mix-blend-mode:multiply"/>
</g>
<path d="M242.021 62.045H262.689L265.488 49.5524C265.488 49.5524 257.307 54.291 255.369 51.0602C253.432 47.8294 253.862 49.1217 251.925 49.5524C249.987 49.9832 249.987 47.3986 247.619 48.9063C245.035 50.6294 241.16 58.8141 242.021 62.045Z" fill="#6B1912"/>
<path d="M201.632 218.023L213.41 189.508L246.528 201.922C245.386 211.056 225.187 228.561 213.41 240.959L201.632 218.023Z" fill="url(#paint3_linear)"/>
<path d="M229.216 134.923C229.216 134.923 211.081 167.814 200.452 216.165C197.182 231.043 197.973 238.729 202.932 242.201C209.131 246.54 220.287 242.82 225.866 231.043C231.547 218.026 242.048 189.792 244.404 176.222C244.404 176.222 240.328 137.362 229.216 134.923Z" fill="url(#paint4_linear)"/>
<path d="M229.104 134.415C229.104 134.415 230.181 159.184 233.41 278.295C233.41 278.295 262.69 293.156 321.035 282.818C321.035 282.818 321.251 247.063 329.216 215.401C329.216 215.401 344.072 155.738 336.536 138.292C336.536 138.292 288.956 108.783 229.104 134.415Z" fill="url(#paint5_linear)"/>
<path d="M274.315 110.808L273.884 126.23C273.884 126.23 277.544 131.615 286.371 132.261C295.198 132.692 299.504 127.738 299.504 127.738L300.365 104.777C289.385 109.515 278.621 111.454 274.315 110.808Z" fill="url(#paint6_linear)"/>
<path d="M275.177 104.476L274.316 121.492C278.622 122.138 289.386 120.199 300.151 115.461L300.797 104.476H275.177Z" fill="url(#paint7_linear)" style="mix-blend-mode:multiply"/>
<path d="M333.522 171.892C333.522 171.892 320.82 200.539 316.298 213.462C311.777 226.17 311.777 276.786 288.095 286.479C288.095 286.479 313.284 284.971 321.25 282.817C321.25 282.817 321.681 244.693 329.431 215.4C329.431 215.4 334.814 184.6 336.967 170.6L333.522 171.892Z" fill="#EE4D47" fill-opacity="0.29" style="mix-blend-mode:multiply"/>
<path d="M316.729 66.9995C316.299 67.2149 315.868 74.1073 315.868 74.1073L314.146 88.5383L306.18 94.7846L301.659 96.7231C301.659 96.7231 294.985 93.923 295.846 91.3384C296.707 88.9691 301.013 54.9377 301.874 54.9377C302.735 54.9377 309.625 59.8916 309.625 59.8916L316.729 66.9995Z" fill="#402B2B"/>
<path d="M253.649 54.0754C251.711 54.0754 254.725 77.7682 254.725 77.7682L258.17 68.2911L260.538 56.8755L253.649 54.0754Z" fill="#402B2B"/>
<path d="M256.878 58.8125L253.218 89.1823C253.218 89.1823 251.926 114.814 273.025 116.321C294.124 117.614 308.549 96.7209 308.549 96.7209C308.549 96.7209 311.132 99.7363 313.931 94.567C316.514 89.3977 314.792 82.5053 311.132 81.8591C307.257 81.4283 305.534 83.5822 305.104 86.813C304.673 90.0438 304.243 92.4131 304.243 92.4131L301.013 91.9824L303.381 66.9973C303.381 66.9973 298.43 57.3048 292.832 55.3663C287.234 53.4278 282.283 61.1818 282.283 61.1818C282.283 61.1818 277.116 62.2587 272.164 61.1818C267.212 60.1048 263.983 58.8125 263.983 58.8125C263.983 58.8125 260.968 59.674 256.878 58.8125Z" fill="url(#paint8_linear)"/>
<path d="M272.977 234.76C272.977 234.76 240.124 229.801 240.124 224.842C240.124 219.883 246.942 208.105 251.901 194.468C256.86 180.831 261.2 159.135 263.059 154.795C264.919 150.456 257.48 162.854 257.48 162.854C245.289 178.764 220.411 211.701 218.428 216.164C216.444 220.627 215.535 231.248 215.328 236L224.007 240.959L249.422 237.86L272.977 234.76Z" fill="#EE4D47" fill-opacity="0.29" style="mix-blend-mode:multiply"/>
<path d="M262.38 103.345C262.38 100.866 264.907 97.1598 269.199 98.3862C273.538 99.6264 274.571 103.345 274.778 105.825" stroke="#893D43"/>
<path d="M256.182 139.299C256.182 139.299 202.253 208.745 201.013 219.884C199.773 231.023 198.871 242.009 210.142 243.365C221.412 244.722 232.119 226.975 236.064 217.932L245.024 195.088L263.62 149.837L256.182 139.299Z" fill="url(#paint9_linear)"/>
<path d="M263.679 154.175C263.679 147.976 256.24 145.497 250.041 145.497L211.609 198.807C203.757 209.758 190.285 235.008 204.17 243.439C218.056 251.869 233.511 230.421 238.884 219.263C241.859 212.32 256.654 172.978 263.679 154.175Z" fill="url(#paint10_linear)"/>
<path d="M256.241 140.538C256.241 140.538 252.453 125.816 256.477 116.237C256.477 116.237 258.673 111.953 261.041 113.794C263.678 115.492 265.75 111.62 268.387 113.317C271.023 115.015 273.133 112.504 275.746 115.769C275.746 115.769 278.719 114.869 280.425 117.41C282.132 119.951 286.039 125.632 285.19 126.949C284.341 128.267 281.459 134.818 280.715 135.043C279.972 135.268 278.611 135.306 277.997 132.871C277.997 132.871 277.93 135.325 276.645 138.085C275.565 140.907 272.051 144.342 272.051 144.342L263.059 150.455L256.241 140.538Z" fill="url(#paint11_linear)"/>
<path d="M279.051 51.0598V29.0901C292.184 29.7363 305.748 32.3209 312.422 40.5057C320.388 50.1982 315.867 72.5987 315.867 72.5987C315.867 72.5987 306.178 71.5217 304.456 68.2909C302.734 65.0601 286.371 60.5368 273.884 61.183C261.397 61.8292 255.369 60.5369 249.125 55.1522C247.833 54.0752 246.757 52.5675 245.896 50.8444H279.051V51.0598Z" fill="#402B2B"/>
<path d="M317.374 64.4139C317.374 64.4139 308.116 61.3984 292.615 60.1061C266.564 49.1213 255.369 51.0598 255.369 51.0598C255.369 51.0598 255.584 42.6596 257.952 36.8441C260.321 31.0286 276.253 22.8439 289.601 24.1362C302.949 25.4285 316.728 35.3364 318.881 44.8135C320.603 52.1367 317.374 64.4139 317.374 64.4139Z" fill="url(#paint12_linear)"/>
<path d="M301.658 61.1858C298.859 47.8317 278.837 41.1547 264.627 41.37C250.633 41.5854 240.73 53.2164 239.223 61.1858C238.577 64.4166 241.16 64.8474 242.022 62.0473C242.667 60.1088 243.959 50.8471 256.877 51.9241C269.795 53.001 269.149 64.632 275.608 65.709C281.636 66.7859 288.525 62.4781 301.658 61.1858Z" fill="url(#paint13_linear)"/>
<path d="M257.543 69.1001L256.872 67.7499C257.451 67.4625 261.598 64.6804 267.571 63.1555L268.433 65.3731C263.327 66.2262 257.543 69.1001 257.543 69.1001Z" fill="#402B2B"/>
<path d="M294.193 74.7672C291.613 71.1616 285.459 67.0547 285.551 66.8601L287.252 65.2821C287.446 65.3743 292.925 69.3994 295.617 73.7733L294.193 74.7672Z" fill="#402B2B"/>
<path d="M273.241 76.907C273.241 76.907 272.595 81.4301 270.873 82.7225C269.151 84.0148 266.136 85.0917 265.706 86.1687C265.275 87.0303 266.136 88.7534 268.074 89.3995C270.012 90.0457 270.227 90.6919 270.227 90.6919C270.227 90.6919 266.352 91.1227 264.414 88.7534C262.476 86.3841 264.629 84.4456 266.567 83.3687C268.505 82.2917 269.366 81.8609 270.227 81.2148C271.304 80.5686 273.241 76.907 273.241 76.907Z" fill="#D87C60"/>
<path d="M282.496 79.2738C282.496 81.4277 284.003 83.3662 285.941 83.3662C287.879 83.3662 289.386 81.6431 289.386 79.2738C289.386 77.1199 287.879 75.1814 285.941 75.1814C284.003 75.1814 282.496 76.9045 282.496 79.2738Z" fill="#402B2B"/>
<path d="M258.815 76.4745C258.815 78.6283 260.322 80.5668 262.259 80.5668C264.197 80.5668 265.704 78.8437 265.704 76.4745C265.704 74.3206 264.197 72.3821 262.259 72.3821C260.322 72.5975 258.815 74.3206 258.815 76.4745Z" fill="#402B2B"/>
<path d="M247.136 244.68C245.483 241.993 242.425 234.513 243.416 226.083C245.483 228.976 249.119 236.745 247.136 244.68Z" fill="#644545"/>
<path fill-rule="evenodd" clip-rule="evenodd" d="M322.111 234.571C337.828 211.739 339.98 142.6 339.98 142.6C325.519 144.48 318.612 158.795 314.175 167.992C312.007 172.486 310.428 175.758 308.846 175.758L302.186 218.098L235.583 229.991C235.528 230.068 235.473 230.145 235.418 230.221C232.138 230.307 220.753 230.949 213.317 235.684C213.317 235.684 209.465 238.571 211.679 240.595C212.738 241.752 212.401 243.004 212.063 244.256C211.726 245.508 211.389 246.759 212.448 247.916C213.341 248.891 213.481 249.901 213.618 250.894C213.806 252.255 213.99 253.586 216.105 254.756C216.105 254.756 215.719 257.838 218.511 259.092C218.638 259.149 218.772 259.209 218.912 259.272C221.861 260.6 227.614 263.191 228.717 262.18C229.132 261.8 230.167 261.049 231.327 260.206C233.401 258.699 235.879 256.9 235.941 256.406C236.037 255.635 235.845 254.287 233.341 254.092C233.341 254.092 235.749 253.612 238.253 251.88C240.853 250.341 243.646 246.297 243.646 246.297L246.18 240.509C307.887 245.769 322.111 234.571 322.111 234.571Z" fill="url(#paint14_linear)"/>
<path d="M304.027 174.263L297.998 205.925L295.294 213.894L243.223 226.083C244.67 228.769 247.439 236.249 246.943 244.68C258.514 245.919 290.707 246.043 312.031 241.58C317.759 240.48 324.428 234.761 332.876 213.894C352.037 147.985 336.536 138.293 336.536 138.293C315.007 141.093 304.027 174.263 304.027 174.263Z" fill="url(#paint15_linear)"/>
<path d="M166.883 114.931C166.883 114.931 184.807 132.916 170.032 136.864C155.256 140.812 141.277 129.196 122.384 132.344C89.9973 137.741 36.8166 144.76 8.02813 92.1196C-27.9574 26.3197 65.9543 -0.000240015 113.286 0C170.065 0.000287926 192.454 23.688 197.852 56.1493C202.17 82.1183 178.578 107.035 166.883 114.931Z" fill="url(#paint16_linear)"/>
<path d="M98.6258 78.6341L99.4918 60.5332C102.961 59.6557 105.857 58.0454 108.18 55.7024C110.503 53.3594 111.847 50.3871 112.213 46.7855C112.643 42.5483 112.196 39.1536 110.873 36.6013C109.557 33.9784 107.725 32.5536 105.374 32.3268C103.309 32.1275 101.635 32.679 100.353 33.9814C99.141 35.2908 98.093 37.115 97.2084 39.4542L95.3037 44.4048C94.4191 46.7441 93.1397 48.3677 91.4655 49.2758C89.8697 50.1202 88.228 50.3539 86.5404 49.9771C84.924 49.6072 83.5749 48.7282 82.4933 47.3402C81.4188 45.8816 80.9963 44.0224 81.2256 41.7626C81.5122 38.9378 82.7921 36.601 85.0651 34.7524C87.4093 32.9106 90.2767 31.5828 93.6672 30.769C97.0577 29.9553 100.533 29.7202 104.094 30.0638C111.287 30.758 116.758 32.8193 120.509 36.2477C124.332 39.683 125.935 44.4372 125.318 50.5106C124.895 54.6771 123.505 58.1085 121.145 60.8046C118.786 63.5007 115.876 65.6087 112.414 67.1287C109.03 68.5849 105.543 69.639 101.953 70.2909L100.549 78.8196L98.6258 78.6341ZM96.1527 104.068C93.589 103.82 91.4709 102.724 89.7985 100.78C88.1973 98.8428 87.5258 96.603 87.7837 94.0607C88.0346 91.589 89.1397 89.5563 91.0992 87.9626C93.1371 86.3052 95.4379 85.6002 98.0016 85.8476C100.637 86.1019 102.715 87.2296 104.238 89.2306C105.839 91.168 106.515 93.3725 106.264 95.8442C106.006 98.3865 104.897 100.454 102.937 102.048C101.049 103.649 98.7876 104.322 96.1527 104.068Z" fill="white"/>
<defs>
<linearGradient id="paint0_linear" x1="338.686" y1="229.737" x2="338.686" y2="533.4" gradientUnits="userSpaceOnUse">
<stop stop-color="#F37753"/>
<stop offset="1" stop-color="white" stop-opacity="0"/>
</linearGradient>
<linearGradient id="paint1_linear" x1="405.128" y1="227.103" x2="333.756" y2="398.02" gradientUnits="userSpaceOnUse">
<stop stop-color="#F7A58D"/>
<stop offset="0.926161" stop-color="white"/>
</linearGradient>
<linearGradient id="paint2_linear" x1="303.058" y1="198.86" x2="303.058" y2="562.091" gradientUnits="userSpaceOnUse">
<stop stop-color="#822626"/>
<stop offset="0.943497" stop-color="#402B2B"/>
</linearGradient>
<linearGradient id="paint3_linear" x1="220.001" y1="193.358" x2="220.001" y2="249.997" gradientUnits="userSpaceOnUse">
<stop stop-color="#FFB3B6"/>
<stop offset="1" stop-color="#FFC8C1"/>
</linearGradient>
<linearGradient id="paint4_linear" x1="244.463" y1="139.92" x2="244.463" y2="251.499" gradientUnits="userSpaceOnUse">
<stop stop-color="#F4A984"/>
<stop offset="1" stop-color="#EE4D47"/>
</linearGradient>
<linearGradient id="paint5_linear" x1="283.887" y1="62.0578" x2="283.887" y2="280.894" gradientUnits="userSpaceOnUse">
<stop stop-color="#F4A984"/>
<stop offset="1" stop-color="#EE4D47"/>
</linearGradient>
<linearGradient id="paint6_linear" x1="295.947" y1="125.119" x2="274.16" y2="134.516" gradientUnits="userSpaceOnUse">
<stop stop-color="#FFB3B6"/>
<stop offset="1" stop-color="#FFC8C1"/>
</linearGradient>
<linearGradient id="paint7_linear" x1="296.379" y1="114.313" x2="274.469" y2="123.591" gradientUnits="userSpaceOnUse">
<stop stop-color="#FFB3B6" stop-opacity="0.31"/>
<stop offset="1" stop-color="#FFC8C1"/>
</linearGradient>
<linearGradient id="paint8_linear" x1="250.412" y1="108.947" x2="255.072" y2="67.3041" gradientUnits="userSpaceOnUse">
<stop stop-color="#FFB3B6"/>
<stop offset="1" stop-color="#FFC8C1"/>
</linearGradient>
<linearGradient id="paint9_linear" x1="239.657" y1="114.503" x2="239.657" y2="241.367" gradientUnits="userSpaceOnUse">
<stop stop-color="#FFB3B6"/>
<stop offset="1" stop-color="#FFC8C1"/>
</linearGradient>
<linearGradient id="paint10_linear" x1="212.848" y1="171.532" x2="259.29" y2="239.753" gradientUnits="userSpaceOnUse">
<stop stop-color="#F4A984"/>
<stop offset="0.91698" stop-color="#EE4D47"/>
</linearGradient>
<linearGradient id="paint11_linear" x1="266.5" y1="138" x2="284" y2="108" gradientUnits="userSpaceOnUse">
<stop stop-color="#FFB3B6"/>
<stop offset="1" stop-color="#FFC8C1"/>
</linearGradient>
<linearGradient id="paint12_linear" x1="287.378" y1="2.29794" x2="287.378" y2="64.9239" gradientUnits="userSpaceOnUse">
<stop stop-color="#F4A984"/>
<stop offset="1" stop-color="#EE4D47"/>
</linearGradient>
<linearGradient id="paint13_linear" x1="289.015" y1="35.1638" x2="289.015" y2="100.27" gradientUnits="userSpaceOnUse">
<stop stop-color="#F4A984"/>
<stop offset="1" stop-color="#EE4D47"/>
</linearGradient>
<linearGradient id="paint14_linear" x1="318.777" y1="202.577" x2="207.166" y2="239.78" gradientUnits="userSpaceOnUse">
<stop stop-color="#FFB3B6"/>
<stop offset="1" stop-color="#FFC8C1"/>
</linearGradient>
<linearGradient id="paint15_linear" x1="285.995" y1="177.112" x2="333.107" y2="248.399" gradientUnits="userSpaceOnUse">
<stop stop-color="#F4A984"/>
<stop offset="1" stop-color="#EE4D47"/>
</linearGradient>
<linearGradient id="paint16_linear" x1="28.7884" y1="-86.8559" x2="189.102" y2="152.836" gradientUnits="userSpaceOnUse">
<stop stop-color="#F4A984"/>
<stop offset="1" stop-color="#EE4D47"/>
</linearGradient>
</defs>
</svg>
